# xmcd
#
# Track frame offsets:
#       150
#       13538
#       29649
#       43305
#       58918
#       69185
#       88184
#       104675
#       118488
#       147111
#       181136
#       200923
#       227108
#       248065
#       264007
#       279209
#
# Disc length: 4040 seconds
#
# Revision: 0
# Processed by: cddbd v1.5.2PL0 Copyright (c) Steve Scherf et al.
# Submitted via: CD-DA_X-Tractor v0.21
#
DISCID=ec0fc610
DTITLE=Dennis Brennan - Engagement 
DYEAR=1900
DGENRE=
TTITLE0=After The Bull
TTITLE1=Everybody's Running Away
TTITLE2=Here She Comes
TTITLE3=When You Were Loving Him
TTITLE4=Personal Assistant
TTITLE5=It Ain't What You Think It Is
TTITLE6=Delmore Schwartz
TTITLE7=Sugar Falls
TTITLE8=Barbara Allen's Dream
TTITLE9=Running Scared
TTITLE10=Crying On The Avenue
TTITLE11=I Got My Own
TTITLE12=Brokenhearted I Will Wander
TTITLE13=You Don't Have Very Far To Go
TTITLE14=Hard Traveling
TTITLE15=Feel Like Going Home
EXTD=
EXTT0=
EXTT1=
EXTT2=
EXTT3=
EXTT4=
EXTT5=
EXTT6=
EXTT7=
EXTT8=
EXTT9=
EXTT10=
EXTT11=
EXTT12=
EXTT13=
EXTT14=
EXTT15=
PLAYORDER=
